<svg width="316" height="144" viewBox="0 0 316 144" fill="none" xmlns="http://www.w3.org/2000/svg"><g clip-path="url(#a)"><g clip-path="url(#b)"><mask id="c" style="mask-type:luminance" maskUnits="userSpaceOnUse" x="110" y="56" width="96" height="72"><path d="M198 56h-80a8 8 0 0 0-8 8v56a8 8 0 0 0 8 8h80a8 8 0 0 0 8-8V64a8 8 0 0 0-8-8z" fill="#fff"/></mask><g mask="url(#c)"><path d="M110 56l40.432 37.063a11.2 11.2 0 0 0 15.136 0L206 56h-96z" fill="#1F1F1F"/><path d="M158 96.529a11.664 11.664 0 0 1-7.906-3.099l-40.432-37.062A.5.5 0 0 1 110 55.5h96a.5.5 0 0 1 .338.868L165.906 93.43A11.668 11.668 0 0 1 158 96.529zM111.285 56.5l39.484 36.194a10.645 10.645 0 0 0 14.461 0L204.714 56.5h-93.43.001z" fill="#1F1F1F"/><path d="M165.568 93.062a11.2 11.2 0 0 1-15.136 0L110 56v72h96V56l-40.432 37.062z" fill="#fff"/><path d="M206 128.5h-96a.5.5 0 0 1-.5-.5V56a.5.5 0 0 1 .838-.368l40.432 37.062a10.645 10.645 0 0 0 14.461 0l40.432-37.062a.502.502 0 0 1 .838.368v72a.5.5 0 0 1-.5.5H206zm-95.5-1h95V57.137l-39.594 36.294c-4.508 4.133-11.305 4.133-15.812 0L110.5 57.137V127.5z" fill="#1F1F1F"/><path d="M165.568 93.062a11.201 11.201 0 0 1-15.137 0L149.272 92 110 128h96l-39.272-36-1.159 1.062h-.001z" fill="#fff"/><path d="M206 128.5h-96a.5.5 0 0 1-.338-.868l39.272-36a.499.499 0 0 1 .676 0l1.159 1.062a10.645 10.645 0 0 0 14.461 0l1.159-1.062a.499.499 0 0 1 .676 0l39.272 36a.5.5 0 0 1-.338.868H206zm-94.715-1h93.43l-37.987-34.821-.821.752c-4.508 4.133-11.305 4.133-15.812 0l-.821-.752-37.987 34.821h-.002z" fill="#1F1F1F"/></g><path d="M198 128.5h-80c-4.687 0-8.5-3.813-8.5-8.5V64c0-4.687 3.813-8.5 8.5-8.5h80c4.687 0 8.5 3.813 8.5 8.5v56c0 4.687-3.813 8.5-8.5 8.5zm-80-72c-4.136 0-7.5 3.364-7.5 7.5v56c0 4.136 3.364 7.5 7.5 7.5h80c4.136 0 7.5-3.364 7.5-7.5V64c0-4.136-3.364-7.5-7.5-7.5h-80z" fill="#1F1F1F"/><path d="M190 16a8 8 0 0 1 8 8v39l-32.432 30.062a11.201 11.201 0 0 1-15.137 0L117.999 63V24a8 8 0 0 1 8-8H190z" fill="#E46962"/><path d="M158 96.529a11.664 11.664 0 0 1-7.906-3.099l-33.842-31.021a.499.499 0 1 1 .676-.736l33.842 31.021a10.645 10.645 0 0 0 14.461 0l34.021-31.187a.499.499 0 1 1 .676.736L165.907 93.43a11.668 11.668 0 0 1-7.906 3.099H158z" fill="#1F1F1F"/><path d="M158.476 62.091c-5.826 0-10.566-4.74-10.566-10.566 0-3.275 1.481-6.312 4.063-8.327a10.483 10.483 0 0 1 9.064-1.923l2.659.665a1 1 0 0 1 .758.97v13.202a5.985 5.985 0 0 1-5.978 5.979zm-.02-19.136a8.511 8.511 0 0 0-5.253 1.818 8.512 8.512 0 0 0-3.294 6.751c0 4.724 3.843 8.566 8.566 8.566a3.984 3.984 0 0 0 3.979-3.979V43.689l-1.901-.476a8.637 8.637 0 0 0-2.097-.259v.001z" fill="#fff"/><path d="M170.728 62.091c-4.562 0-8.273-3.711-8.273-8.272h2a6.28 6.28 0 0 0 6.273 6.272A6.278 6.278 0 0 0 177 53.819v-1.818h2v1.818c0 4.562-3.711 8.272-8.272 8.272z" fill="#fff"/><path d="M158 73c-11.579 0-21-9.421-21-21s9.421-21 21-21 21 9.421 21 21a1 1 0 1 1-2 0c0-10.477-8.523-19-19-19s-19 8.523-19 19 8.523 19 19 19a1 1 0 1 1 0 2z" fill="#fff"/></g></g><defs><clipPath id="a"><path fill="#fff" d="M0 0h316v144H0z"/></clipPath><clipPath id="b"><path fill="#fff" d="M0 0h316v144H0z"/></clipPath></defs></svg>