
<svg viewBox="0 0 400 300" xmlns="http://www.w3.org/2000/svg">
    <!-- Background shield -->
    <path d="M200 30 L320 80 L320 170 C320 230 270 270 200 290 C130 270 80 230 80 170 L80 80 Z" fill="#f0f9f0" stroke="#c8e6c9" stroke-width="4"/>

    <!-- Lock body (closed) -->
    <rect x="150" y="140" width="100" height="90" rx="10" ry="10" fill="#4caf50" />

    <!-- Closed lock shackle -->
    <path d="M170 140 L170 110 C170 85 230 85 230 110 L230 140" stroke="#4caf50" stroke-width="20" fill="none" stroke-linecap="round" />

    <!-- Success checkmark -->
    <circle cx="200" cy="180" r="35" fill="#ffffff" />
    <path d="M180 180 L195 195 L220 165" stroke="#4caf50" stroke-width="12" fill="none" stroke-linecap="round" stroke-linejoin="round" />

    <!-- Radiating lines for emphasis -->
    <g stroke="#c8e6c9" stroke-width="3">
        <line x1="200" y1="80" x2="200" y2="100" />
        <line x1="240" y1="90" x2="230" y2="107" />
        <line x1="160" y1="90" x2="170" y2="107" />
        <line x1="270" y1="120" x2="250" y2="130" />
        <line x1="130" y1="120" x2="150" y2="130" />
    </g>

    <!-- Pulsing circle animation -->
    <circle cx="200" cy="180" r="55" fill="none" stroke="#4caf50" stroke-width="3" opacity="0.3">
        <animate attributeName="r" values="45;65;45" dur="3s" repeatCount="indefinite" />
        <animate attributeName="opacity" values="0.1;0.3;0.1" dur="3s" repeatCount="indefinite" />
    </circle>
</svg>